HIERARCHY
ROOT SpineBase
{
  OFFSET 0.000000 0.000000 0.000000
  CHANNELS 6 Xposition Yposition Zposition Zrotation Xrotation Yrotation
  JOINT SpineMid
  {
    OFFSET 0.000000 32.292248 -0.000000
    CHANNELS 3 Zrotation Xrotation Yrotation
    JOINT SpineShoulder
    {
      OFFSET -0.415082 24.075758 -0.681019
      CHANNELS 3 Zrotation Xrotation Yrotation
      JOINT Neck
      {
        OFFSET -0.244435 7.885099 -0.514471
        CHANNELS 3 Zrotation Xrotation Yrotation
        JOINT Head
        {
          OFFSET 0.128760 15.018096 -1.736492
          CHANNELS 3 Zrotation Xrotation Yrotation
          End Site
          {
            OFFSET 0 0 0
          }
        }
      }
      JOINT ShoulderLeft
      {
        OFFSET -18.441308 -2.690973 2.645932
        CHANNELS 3 Zrotation Xrotation Yrotation
        JOINT ElbowLeft
        {
          OFFSET -4.712079 -22.491886 -1.794241
          CHANNELS 3 Zrotation Xrotation Yrotation
          JOINT WristLeft
          {
            OFFSET 8.462067 -21.783454 -19.922957
            CHANNELS 3 Zrotation Xrotation Yrotation
            JOINT HandLeft
            {
              OFFSET 5.093301 -7.063399 -1.324788
              CHANNELS 3 Zrotation Xrotation Yrotation
              JOINT HandTipLeft
              {
                OFFSET 2.888095 -3.483721 -2.908357
                CHANNELS 3 Zrotation Xrotation Yrotation
                End Site
                {
                  OFFSET 0 0 0
                }
              }
              JOINT ThumbLeft
              {
                OFFSET -6.073898 -2.594040 -0.277161
                CHANNELS 3 Zrotation Xrotation Yrotation
                End Site
                {
                  OFFSET 0 0 0
                }
              }
            }
          }
        }
      }
      JOINT ShoulderRight
      {
        OFFSET 17.485436 -4.656743 -1.847412
        CHANNELS 3 Zrotation Xrotation Yrotation
        JOINT ElbowRight
        {
          OFFSET 5.681357 -24.132913 0.087716
          CHANNELS 3 Zrotation Xrotation Yrotation
          JOINT WristRight
          {
            OFFSET 5.569843 4.180651 -33.923690
            CHANNELS 3 Zrotation Xrotation Yrotation
            JOINT HandRight
            {
              OFFSET 2.467781 4.975714 -12.212255
              CHANNELS 3 Zrotation Xrotation Yrotation
              JOINT HandTipRight
              {
                OFFSET 0.255180 1.394610 -5.679590
                CHANNELS 3 Zrotation Xrotation Yrotation
                End Site
                {
                  OFFSET 0 0 0
                }
              }
              JOINT ThumbRight
              {
                OFFSET -2.707740 -7.934556 0.584914
                CHANNELS 3 Zrotation Xrotation Yrotation
                End Site
                {
                  OFFSET 0 0 0
                }
              }
            }
          }
        }
      }
    }
  }
  JOINT HipLeft
  {
    OFFSET -8.692512 0.661824 -3.512189
    CHANNELS 3 Zrotation Xrotation Yrotation
    JOINT KneeLeft
    {
      OFFSET 3.607005 -36.204286 10.846648
      CHANNELS 3 Zrotation Xrotation Yrotation
      JOINT AnkleLeft
      {
        OFFSET -5.830235 -41.844079 10.612284
        CHANNELS 3 Zrotation Xrotation Yrotation
        JOINT FootLeft
        {
          OFFSET -0.317879 -9.158822 -6.902316
          CHANNELS 3 Zrotation Xrotation Yrotation
          End Site
          {
            OFFSET 0 0 0
          }
        }
      }
    }
  }
  JOINT HipRight
  {
    OFFSET 7.235985 0.291138 -4.571583
    CHANNELS 3 Zrotation Xrotation Yrotation
    JOINT KneeRight
    {
      OFFSET 0.233199 -35.795292 9.273766
      CHANNELS 3 Zrotation Xrotation Yrotation
      JOINT AnkleRight
      {
        OFFSET 1.257065 -42.073995 13.790455
        CHANNELS 3 Zrotation Xrotation Yrotation
        JOINT FootRight
        {
          OFFSET -1.168313 -10.428530 -3.272688
          CHANNELS 3 Zrotation Xrotation Yrotation
          End Site
          {
            OFFSET 0 0 0
          }
        }
      }
    }
  }
}
MOTION
Frames: 8
Frame Time: 0.033333
63.607783 88.006679 346.338755 -0.000000 -0.000000 3.805103 0.000000 0.000000 -3.805103 -0.000000 0.000000 0.000000 -0.000000 0.000000 0.000000 0.000000 0.000000 0.000000 -0.000000 0.000000 0.000000 -0.000000 0.000000 0.000000 -0.000000 0.000000 0.000000 -0.000000 0.000000 0.000000 0.000000 0.000000 0.000000 0.000000 0.000000 0.000000 -0.000000 0.000000 0.000000 -0.000000 0.000000 0.000000 -0.000000 0.000000 0.000000 -0.000000 0.000000 0.000000 0.000000 0.000000 0.000000 0.000000 0.000000 0.000000 0.000000 0.000000 -3.805103 -0.000000 0.000000 0.000000 -0.000000 0.000000 0.000000 0.000000 0.000000 0.000000 0.000000 0.000000 -3.805103 -0.000000 0.000000 0.000000 -0.000000 0.000000 0.000000 0.000000 0.000000 0.000000
63.733069 88.039031 346.254407 0.320167 0.147401 3.706885 -0.329028 -0.126391 -3.707660 -0.000000 0.000000 0.000000 -0.000000 0.000000 0.000000 0.000000 0.000000 0.000000 3.547574 4.237068 -1.307007 -3.459888 -4.308923 1.045531 -4.982327 6.872453 6.316728 5.896092 -7.260316 -6.667112 0.000000 0.000000 0.000000 0.000000 0.000000 0.000000 -0.000000 0.000000 0.000000 -0.683132 -4.706858 0.524101 2.736188 11.935502 0.387617 -2.128475 -4.576160 -2.497150 0.000000 0.000000 0.000000 0.000000 0.000000 0.000000 0.916188 -0.336405 -3.339654 -2.467543 0.177945 -0.669848 6.276175 -0.629897 -3.473206 0.000000 0.000000 0.000000 -0.329028 -0.126391 -3.707660 -0.000000 0.000000 0.000000 -1.868268 15.327126 -0.852099 0.000000 0.000000 0.000000
63.857105 88.071604 346.185189 0.628783 0.274955 3.609552 0.174626 -0.011771 -3.583156 0.066621 -0.098782 0.035673 -0.870660 -0.174502 -0.063552 0.000000 0.000000 0.000000 5.705211 7.416843 -2.615834 -7.172909 -8.857987 2.025896 -8.634623 12.891758 11.526857 9.724609 -13.467468 -11.065931 0.000000 0.000000 0.000000 0.000000 0.000000 0.000000 -0.870660 -0.174502 -0.063552 -1.228767 -8.737628 0.978205 4.791608 20.283965 0.023095 -3.427211 -6.839313 -4.366729 0.000000 0.000000 0.000000 0.000000 0.000000 0.000000 1.700495 -0.636828 -2.912771 -4.649478 0.389824 -1.252635 11.286509 -1.486110 -6.095638 0.000000 0.000000 0.000000 -1.615074 -0.090998 -3.867882 0.977709 -0.078050 0.253407 -3.277793 27.479338 -1.211452 0.000000 0.000000 0.000000
63.979892 88.104397 346.131101 0.925898 0.382679 3.512769 0.211925 -0.013187 -3.476336 0.090030 -0.141671 0.050628 -1.228722 -0.239005 -0.090162 0.000000 0.000000 0.000000 7.829897 9.890709 -3.744134 -9.774168 -12.040350 2.474966 -12.002543 16.549270 15.746689 11.893649 -18.010565 -13.757120 0.000000 0.000000 0.000000 0.000000 0.000000 0.000000 -0.366710 -0.158270 -0.064760 -2.490715 -11.971598 1.344980 6.385994 25.990933 -0.617059 -4.207932 -7.933583 -5.689931 0.000000 0.000000 0.000000 0.000000 0.000000 0.000000 2.345703 -0.903482 -2.528784 -6.545449 0.625437 -1.748948 14.913216 -2.393360 -7.780516 0.000000 0.000000 0.000000 -2.375132 -0.113489 -3.895867 1.438581 -0.114260 0.373286 -4.306453 36.174437 -1.295316 0.000000 0.000000 0.000000
64.101430 88.137411 346.092142 1.211564 0.470592 3.416234 0.215878 -0.011892 -3.371794 0.106815 -0.180295 0.063485 -2.339811 -0.544410 -0.209586 0.000000 0.000000 0.000000 9.461801 11.643634 -4.653354 -11.789898 -14.412798 2.708210 -14.328769 18.704882 18.545987 12.654195 -20.776718 -15.134381 0.000000 0.000000 0.000000 0.000000 0.000000 0.000000 -0.504250 -0.178116 -0.078688 -2.899699 -14.136583 1.675174 7.519076 29.513524 -1.248491 -4.651360 -8.421534 -6.550723 0.000000 0.000000 0.000000 0.000000 0.000000 0.000000 2.846481 -1.138566 -2.191141 -8.156414 0.876121 -2.160379 17.132901 -3.234110 -8.519018 0.000000 0.000000 0.000000 -3.101568 -0.120893 -3.919496 1.878604 -0.148587 0.487997 -5.012797 42.031056 -1.271241 0.000000 0.000000 0.000000
64.221719 88.170646 346.068313 1.485829 0.538704 3.319681 0.186473 -0.008075 -3.269171 0.116967 -0.214696 0.074135 -2.682724 -0.631133 -0.239744 0.000000 0.000000 0.000000 10.609688 12.750812 -5.303013 -13.256325 -16.014128 2.806960 -15.531873 19.638935 19.850810 11.353982 -21.793682 -15.216290 0.000000 0.000000 0.000000 0.000000 0.000000 0.000000 -0.649369 -0.181403 -0.088925 -3.090344 -15.200864 1.957832 8.124442 31.072340 -1.678643 -4.856647 -8.573485 -7.006758 0.000000 0.000000 0.000000 0.000000 0.000000 0.000000 3.199263 -1.344132 -1.902419 -9.484364 1.134775 -2.489224 17.950143 -3.956743 -8.324708 0.000000 0.000000 0.000000 -3.793078 -0.113420 -3.937365 2.296306 -0.181046 0.597123 -5.429907 45.726575 -1.245156 0.000000 0.000000 0.000000
64.352441 88.215479 346.058923 1.759614 0.590860 3.236891 0.112841 -0.002045 -3.182225 0.107952 -0.241494 0.081671 -2.916611 -0.763622 -0.259649 0.000000 0.000000 0.000000 9.613527 11.543162 -4.777223 -12.481552 -14.642170 2.678325 -13.344401 18.020419 17.340489 7.771262 -19.136779 -12.887522 0.000000 0.000000 0.000000 0.000000 0.000000 0.000000 -0.820632 -0.224136 -0.106186 -3.109632 -15.840526 2.327265 8.423289 31.706925 -2.267278 -4.655384 -7.858803 -6.447641 0.000000 0.000000 0.000000 0.000000 0.000000 0.000000 3.306175 -1.534772 -1.705648 -10.421422 1.349659 -2.699941 15.093627 -5.633503 -5.463387 0.000000 0.000000 0.000000 -4.514453 -0.087821 -3.976962 3.617877 -0.172333 1.004534 -5.916376 48.071882 -1.868922 0.000000 0.000000 0.000000
64.492047 88.257894 346.060387 2.030987 0.622784 3.139875 -0.030251 0.001687 -3.083751 0.108956 -0.270755 0.086792 -2.979917 -0.788512 -0.260028 0.000000 0.000000 0.000000 9.413453 11.232365 -4.674877 -12.385115 -14.268536 2.627069 -10.589434 15.816702 14.164686 -0.681248 -16.776814 -8.876890 0.000000 0.000000 0.000000 0.000000 0.000000 0.000000 -1.029877 -0.191492 -0.108802 -2.842626 -14.912173 2.531363 7.916205 29.845479 -2.188580 -4.579281 -7.789580 -6.633902 0.000000 0.000000 0.000000 0.000000 0.000000 0.000000 3.121717 -1.721105 -1.590560 -10.840308 1.684322 -2.775791 13.611771 -5.800990 -3.981671 0.000000 0.000000 0.000000 -5.188058 -0.053612 -3.989646 4.173156 -0.151377 1.162041 -5.816350 49.339159 -2.164720 0.000000 0.000000 0.000000
